<svg xmlns="http://www.w3.org/2000/svg" width="12.346" height="12.346" viewBox="0 0 12.346 12.346">
  <g id="tick-circle-svgrepo-com" transform="translate(-1.25 -1.25)">
    <path id="Path_2454" data-name="Path 2454" d="M7.423,13.6A6.173,6.173,0,1,1,13.6,7.423,6.178,6.178,0,0,1,7.423,13.6Zm0-11.485a5.312,5.312,0,1,0,5.312,5.312A5.318,5.318,0,0,0,7.423,2.111Z" fill="#0669cd"/>
    <path id="Path_2455" data-name="Path 2455" d="M9.056,12.529a.43.43,0,0,1-.3-.126L7.127,10.777a.43.43,0,0,1,.609-.609l1.321,1.321,2.952-2.952a.43.43,0,1,1,.609.609L9.361,12.4A.43.43,0,0,1,9.056,12.529Z" transform="translate(-2.449 -3.049)" fill="#0669cd"/>
  </g>
</svg>
